<?xml version="1.0" encoding="utf-8"?><svg viewBox="0 0 500.07 500" xmlns="http://www.w3.org/2000/svg" xmlns:xlink="http://www.w3.org/1999/xlink"><style>:root>svg{display:none}:root>svg:target{display:block}</style><svg version="1.1" id="icon_facebook" x="0" y="0" viewBox="0 0 496.41 500" xml:space="preserve" xmlns="http://www.w3.org/2000/svg"><style>.aast0{fill:#5a00be}</style><path id="aaPfad_84" class="aast0" d="M496.58 250.43c0 45.55.16 91.02 0 136.52.67 61.54-48.67 111.97-110.21 112.64-.85.01-1.68.01-2.53 0-10.25.1-20.5-.25-30.66.07-9 .29-13.23-3.06-13.19-12.58.25-56.57.31-113.13.16-169.69 0-8.56 3.49-12.42 12.21-12.23 12.78.28 25.58-.39 38.34.17 6.87 1.46 13.62-2.94 15.08-9.81.2-.95.29-1.92.27-2.89 2.11-16.44 4.51-32.84 7.22-49.2 1.42-8.58-1.98-11.76-10.25-11.71-16.62.11-33.22-.26-49.83 0-9.11.17-13.3-3.42-13.04-12.77.38-13.18-.28-26.39.27-39.55.91-21.27 8.72-30.01 29.72-32.71a292.33 292.33 0 0134.37-1.79c8.5-.07 12.53-3.26 12.4-12.07-.28-13.6-.28-27.21 0-40.83.18-8.97-3.41-13.44-12.75-13.38-20.02.14-40.1-.97-60.04.15-43.16 3.26-76.82 38.72-77.82 82-.67 16.99-.18 34.02-.25 51.03-.08 19.14-.68 19.74-20.4 19.78-11.08 0-22.15.25-33.22 0-8.36-.22-12.75 2.72-12.53 11.74.31 17 .23 34.03.08 51.03-.06 7.5 3.26 10.82 10.78 10.74 14.05-.15 28.12.26 42.14 0 9.27-.18 13.15 4.02 13.14 13.01-.06 56.14-.06 112.28 0 168.42 0 9.11-3.79 13.08-13.03 13.05-48.97-.19-98.02 1.37-146.91-.55C45.96 496.82-1.26 446.7.08 386.52c-.13-90.16-.11-180.33.1-270.51C.27 48.76 46.95.28 114.43-.4c89.02-.89 178.04-.89 267.07 0 68.49.6 114.78 48.48 114.91 116.83.09 44.66.09 89.31 0 133.97l.17.03z"/></svg><svg version="1.1" id="icon_instagram" x="0" y="0" viewBox="0 0 500.07 500" xml:space="preserve" xmlns="http://www.w3.org/2000/svg"><style>.abst0{fill:#5a00be}</style><g id="abGruppe_38" transform="translate(-1754.316 45.314)"><g id="abGruppe_11"><g id="abGruppe_6" transform="translate(1818.511 1013.686)"><path id="abPfad_5" class="abst0" d="M267.61-559H104.2c-1.05-.19-2.1-.47-3.16-.57-17.24-1.5-34.66-1.86-51.68-4.72a128.287 128.287 0 01-80.19-45.73 150.887 150.887 0 01-31.65-88.88c-.66-9.5-1.14-19-1.72-28.52v-163.4c.26-1.04.45-2.1.56-3.17 0-18.59 1.77-37.13 5.28-55.38 9.12-50.31 47.14-90.45 96.88-102.29 22.4-5.42 45.42-7.83 68.45-7.17 54.55-.4 109.16-.06 163.74.3 18.59-.3 37.16 1.44 55.37 5.17 50.32 9.09 90.5 47.08 102.38 96.82 5.45 22.54 7.87 45.7 7.19 68.87.39 54.44.25 108.88-.41 163.31-.21 17.32-1.72 34.61-4.55 51.7-4.73 31.49-21 60.09-45.65 80.24a150.956 150.956 0 01-89.32 31.72c-9.35.63-18.73 1.13-28.11 1.7M-18.92-809.17h.38c0 22.91-.44 45.85.14 68.75.48 18.7 1.39 37.51 3.59 56.01a86.149 86.149 0 0021.24 47.93 93.868 93.868 0 0066.6 29.78c22.53 1.68 45.19 2.17 67.81 2.27 37.64.26 75.29.2 112.93-.42 18.97-.32 38.01-1.44 56.83-3.58a85.934 85.934 0 0044.42-18.3 92.503 92.503 0 0033.29-69.54c1.69-22.54 2.16-45.2 2.27-67.81.27-37.64.22-75.29-.41-112.94-.32-18.97-1.44-37.99-3.58-56.83a85.932 85.932 0 00-18.3-44.43 92.417 92.417 0 00-69.56-33.28c-23.3-1.66-46.79-2.06-70.24-2.28-36.94-.27-73.87-.2-110.83.42-18.83.32-37.72 1.45-56.43 3.58a85.934 85.934 0 00-44.42 18.3A92.315 92.315 0 00-16.51-922c-1.7 23.37-1.85 46.86-2.38 70.31-.32 14.16-.06 28.34-.06 42.52"/></g><g id="abGruppe_7" transform="translate(1822.642 991.673)"><path id="abPfad_6" class="abst0" d="M310.43-787.17c.1 70.99-57.37 128.62-128.36 128.72H182c-71 .17-128.69-57.25-128.86-128.25v-.48c-.03-70.98 57.49-128.54 128.47-128.56h.19c70.99-.04 128.58 57.47 128.62 128.46.01.04.01.08.01.11m-45.53.09c-.04-45.85-37.11-83.06-82.97-83.27-46.01.17-83.27 37.43-83.42 83.44.26 45.54 36.99 82.46 82.52 82.97 45.88.44 83.42-36.39 83.86-82.27.01-.29.01-.58.01-.87"/></g><g id="abGruppe_8" transform="translate(1823.073 982.583)"><path id="abPfad_7" class="abst0" d="M314.9-881.39c-16.42.23-29.93-12.89-30.16-29.32v-.66c-.25-16.46 12.88-30 29.34-30.25h.94c16.51-.06 29.94 13.28 29.99 29.79v.45c.11 16.46-13.14 29.89-29.59 30.01-.18-.02-.35-.02-.52-.02"/></g></g></g></svg><svg viewBox="0 0 59.33 87.33" id="l_arrow_elevator" xmlns="http://www.w3.org/2000/svg"><defs><style>.accls-1{fill:none;stroke:#5a00be;stroke-width:3px}</style></defs><g id="acEbene_2" data-name="Ebene 2"><g id="acEbene_1-2" data-name="Ebene 1"><g id="acGruppe_34" data-name="Gruppe 34"><path id="acPfad_79" data-name="Pfad 79" class="accls-1" d="M58.09 44.11L29.66 2.65 1.24 44.11"/><path id="acPfad_80" data-name="Pfad 80" class="accls-1" d="M29.64 87.33V4.83"/></g></g></g></svg><svg viewBox="0 0 22.79 14.34" id="l_arrow_nav" xmlns="http://www.w3.org/2000/svg"><defs><style>.adcls-1{fill:none;stroke:#5a00be;stroke-width:3px}</style></defs><g id="adEbene_2" data-name="Ebene 2"><g id="adEbene_1-2" data-name="Ebene 1"><path id="adPfad_193" data-name="Pfad 193" class="adcls-1" d="M1.1 1l10.3 11.14L21.69 1"/></g></g></svg><svg viewBox="0 0 22.79 14.34" id="l_arrow_nav-red" xmlns="http://www.w3.org/2000/svg"><defs><style>.aecls-1{fill:none;stroke:#d50e31;stroke-width:3px}</style></defs><g id="aeEbene_2" data-name="Ebene 2"><g id="aeEbene_1-2" data-name="Ebene 1"><path id="aePfad_193" data-name="Pfad 193" class="aecls-1" d="M1.1 1l10.3 11.14L21.69 1"/></g></g></svg><svg viewBox="0 0 18.13 25.53" id="l_link_download" xmlns="http://www.w3.org/2000/svg"><defs><style>.afcls-1{fill:none;stroke:#5a00be;stroke-width:3px}</style></defs><g id="afEbene_2" data-name="Ebene 2"><g id="afEbene_1-2" data-name="Ebene 1"><g id="afGruppe_113" data-name="Gruppe 113"><path id="afPfad_79" data-name="Pfad 79" class="afcls-1" d="M2.08 8.65l7 10.2 7-10.2"/><path id="afPfad_80" data-name="Pfad 80" class="afcls-1" d="M9.08 0v18.32"/></g><path class="afcls-1" d="M0 24.03h18.13"/></g></g></svg><svg viewBox="0 0 18.13 25.53" id="l_link_download-red" xmlns="http://www.w3.org/2000/svg"><defs><style>.agcls-1{fill:none;stroke:#d50e31;stroke-width:3px}</style></defs><g id="agEbene_2" data-name="Ebene 2"><g id="agEbene_1-2" data-name="Ebene 1"><g id="agGruppe_113" data-name="Gruppe 113"><path id="agPfad_79" data-name="Pfad 79" class="agcls-1" d="M2.08 8.65l7 10.2 7-10.2"/><path id="agPfad_80" data-name="Pfad 80" class="agcls-1" d="M9.08 0v18.32"/></g><path class="agcls-1" d="M0 24.03h18.13"/></g></g></svg><svg viewBox="0 0 18.48 25.85" id="l_link_drive" xmlns="http://www.w3.org/2000/svg"><defs><style>.ahcls-1{fill:none;stroke:#5a00be;stroke-width:3px}</style></defs><g id="ahEbene_2" data-name="Ebene 2"><g id="ahEbene_1-2" data-name="Ebene 1"><g id="ahGruppe_165" data-name="Gruppe 165"><path id="ahRechteck_130" data-name="Rechteck 130" class="ahcls-1" d="M1.5 12.19h15.48v12.16H1.5z"/><path id="ahPfad_176" data-name="Pfad 176" class="ahcls-1" d="M14.71 7A5.47 5.47 0 003.77 7v5.5"/></g></g></g></svg><svg viewBox="0 0 18.48 25.85" id="l_link_drive-red" xmlns="http://www.w3.org/2000/svg"><defs><style>.aicls-1{fill:none;stroke:#d50e31;stroke-width:3px}</style></defs><g id="aiEbene_2" data-name="Ebene 2"><g id="aiEbene_1-2" data-name="Ebene 1"><g id="aiGruppe_165" data-name="Gruppe 165"><path id="aiRechteck_130" data-name="Rechteck 130" class="aicls-1" d="M1.5 12.19h15.48v12.16H1.5z"/><path id="aiPfad_176" data-name="Pfad 176" class="aicls-1" d="M14.71 7A5.47 5.47 0 003.77 7v5.5"/></g></g></g></svg><svg viewBox="0 0 25.8 25.73" id="l_link_external" xmlns="http://www.w3.org/2000/svg"><defs><style>.ajcls-1{fill:none;stroke:#5a00be;stroke-width:3px}</style></defs><g id="ajEbene_2" data-name="Ebene 2"><g id="ajEbene_1-2" data-name="Ebene 1"><g id="ajGruppe_113" data-name="Gruppe 113"><path id="ajPfad_79" data-name="Pfad 79" class="ajcls-1" d="M22 12.39l2-10.51-10.52 2"/><path id="ajPfad_80" data-name="Pfad 80" class="ajcls-1" d="M9.75 16.05L23.59 2.2"/></g><path id="ajPfad_178" data-name="Pfad 178" class="ajcls-1" d="M18.79 15.58v8.65H1.5V6.94h8.65"/></g></g></svg><svg viewBox="0 0 25.8 25.73" id="l_link_external-red" xmlns="http://www.w3.org/2000/svg"><defs><style>.akcls-1{fill:none;stroke:#d50e31;stroke-width:3px}</style></defs><g id="akEbene_2" data-name="Ebene 2"><g id="akEbene_1-2" data-name="Ebene 1"><g id="akGruppe_113" data-name="Gruppe 113"><path id="akPfad_79" data-name="Pfad 79" class="akcls-1" d="M22 12.39l2-10.51-10.52 2"/><path id="akPfad_80" data-name="Pfad 80" class="akcls-1" d="M9.75 16.05L23.59 2.2"/></g><path id="akPfad_178" data-name="Pfad 178" class="akcls-1" d="M18.79 15.58v8.65H1.5V6.94h8.65"/></g></g></svg><svg viewBox="0 0 35.78 25.66" id="l_link_internal" xmlns="http://www.w3.org/2000/svg"><defs><style>.alcls-1{fill:none;stroke:#5a00be;stroke-width:3px}</style></defs><g id="alEbene_2" data-name="Ebene 2"><g id="alEbene_1-2" data-name="Ebene 1"><g id="alGruppe_113" data-name="Gruppe 113"><path id="alPfad_79" data-name="Pfad 79" class="alcls-1" d="M16.23 24.42l16.9-11.59-16.9-11.59"/><path id="alPfad_80" data-name="Pfad 80" class="alcls-1" d="M0 12.82h32.24"/></g></g></g></svg><svg viewBox="0 0 35.78 25.66" id="l_link_internal-red" xmlns="http://www.w3.org/2000/svg"><defs><style>.amcls-1{fill:none;stroke:#d50e31;stroke-width:3px}</style></defs><g id="amEbene_2" data-name="Ebene 2"><g id="amEbene_1-2" data-name="Ebene 1"><g id="amGruppe_113" data-name="Gruppe 113"><path id="amPfad_79" data-name="Pfad 79" class="amcls-1" d="M16.23 24.42l16.9-11.59-16.9-11.59"/><path id="amPfad_80" data-name="Pfad 80" class="amcls-1" d="M0 12.82h32.24"/></g></g></g></svg><svg viewBox="0 0 25.44 25.83" id="l_link_portal" xmlns="http://www.w3.org/2000/svg"><defs><style>.ancls-1{fill:none;stroke:#5a00be;stroke-width:3px}</style></defs><g id="anEbene_2" data-name="Ebene 2"><g id="anEbene_1-2" data-name="Ebene 1"><g id="anGruppe_300" data-name="Gruppe 300"><g id="anGruppe_113-3" data-name="Gruppe 113-3"><path id="anPfad_79-4" data-name="Pfad 79-4" class="ancls-1" d="M9.47 17.92l7.6-5-7.4-5.28"/><path id="anPfad_80-4" data-name="Pfad 80-4" class="ancls-1" d="M0 12.59l16.65.32"/></g><path id="anPfad_188-2" data-name="Pfad 188-2" class="ancls-1" d="M5.84 6.15l.09-4.63 18 .3-.45 22.48-18-.3.09-4.62"/></g></g></g></svg><svg viewBox="0 0 25.44 25.83" id="l_link_portal-red" xmlns="http://www.w3.org/2000/svg"><defs><style>.aocls-1{fill:none;stroke:#d50e31;stroke-width:3px}</style></defs><g id="aoEbene_2" data-name="Ebene 2"><g id="aoEbene_1-2" data-name="Ebene 1"><g id="aoGruppe_300" data-name="Gruppe 300"><g id="aoGruppe_113-3" data-name="Gruppe 113-3"><path id="aoPfad_79-4" data-name="Pfad 79-4" class="aocls-1" d="M9.47 17.92l7.6-5-7.4-5.28"/><path id="aoPfad_80-4" data-name="Pfad 80-4" class="aocls-1" d="M0 12.59l16.65.32"/></g><path id="aoPfad_188-2" data-name="Pfad 188-2" class="aocls-1" d="M5.84 6.15l.09-4.63 18 .3-.45 22.48-18-.3.09-4.62"/></g></g></g></svg><svg viewBox="0 0 30.99 30.99" id="l_search" xmlns="http://www.w3.org/2000/svg"><defs><style>.apcls-1{fill:none;stroke:#5a00be;stroke-width:3px}</style></defs><g id="apEbene_2" data-name="Ebene 2"><g id="apEbene_1-2" data-name="Ebene 1"><g id="apGruppe_198" data-name="Gruppe 198"><path id="apPfad_190" data-name="Pfad 190" class="apcls-1" d="M25.4 13.45A12 12 0 1113.45 1.5a11.92 11.92 0 0112 11.89z"/><path id="apLinie_3" data-name="Linie 3" class="apcls-1" d="M21.88 21.88l8.05 8.05"/></g></g></g></svg><svg viewBox="0 0 375.74 143.48" id="l_swoosh_1" xmlns="http://www.w3.org/2000/svg"><defs><style>.aqcls-1{fill:none;stroke:#5a00be;stroke-linecap:square;stroke-width:3px}</style></defs><g id="aqEbene_2" data-name="Ebene 2"><g id="aqEbene_1-2" data-name="Ebene 1"><path id="aqPfad_38" data-name="Pfad 38" class="aqcls-1" d="M373.62 2.11S293 99.66 189.4 129.93 2 123.92 2 123.92"/></g></g></svg><svg viewBox="0 0 263.6 190.62" id="l_swoosh_2" xmlns="http://www.w3.org/2000/svg"><defs><style>.arcls-1{fill:none;stroke:#5a00be;stroke-linecap:square;stroke-width:3px}</style></defs><g id="arEbene_2" data-name="Ebene 2"><g id="arEbene_1-2" data-name="Ebene 1"><path id="arPfad_38-2" data-name="Pfad 38-2" class="arcls-1" d="M262 1.56s-6.43 150.61-110 180.88S2 130.3 2 130.3"/></g></g></svg><svg viewBox="0 0 228.05 218.79" id="l_swoosh_3" xmlns="http://www.w3.org/2000/svg"><defs><style>.ascls-1{fill:none;stroke:#5a00be;stroke-linecap:square;stroke-width:3px}</style></defs><g id="asEbene_2" data-name="Ebene 2"><g id="asEbene_1-2" data-name="Ebene 1"><path id="asPfad_38" data-name="Pfad 38" class="ascls-1" d="M213 1.86s53 179.71-50.68 210S2 136.47 2 136.47"/></g></g></svg><svg viewBox="0 0 290.1 165.61" id="logo_asta-hfk-bremen_lila" xmlns="http://www.w3.org/2000/svg"><defs><style>.atcls-1{fill:#5a00be}</style></defs><g id="atEbene_2" data-name="Ebene 2"><g id="atEbene_1-2" data-name="Ebene 1"><path class="atcls-1" d="M68.42 125.16l-5.94-17.85H26.63l-6.09 17.85H0L36.69 24.3h15.44L89 125.16zM44.91 54.05L32.16 90.74h25.08zM137.34 100.08q-12.6 4.2-28.09-1.24a63.72 63.72 0 01-18.58-9.75 42 42 0 01-11.77-15l16.26-7.8a26.3 26.3 0 007.93 9.71 44.52 44.52 0 0012.24 6.4q16.85 5.91 21-5.85c1.15-3.29 1.21-6.15.16-8.57s-3.57-4.68-7.54-6.78l-5.06-2.68-5.87-3q-11.55-6-15.67-14.36-4.42-9.21-.25-21.11 4.56-13 16.3-17.78t27 .55a55.24 55.24 0 0116.46 8.71 38.71 38.71 0 0110.39 13.18l-15.85 7.5a21.86 21.86 0 00-7.06-8.34 42.68 42.68 0 00-10.16-5.07q-7.08-2.49-12.09-.41a11.74 11.74 0 00-6.83 7.28 10 10 0 00.57 7.78q1.88 4 7.35 6.86l5.46 2.82 5.2 2.73a51.21 51.21 0 019.82 6.45 24.33 24.33 0 015.78 7.29q4.91 9.52.26 22.76-4.77 13.5-17.36 17.72zM177.27 121.83q-9.9-3.48-13-11.16a21.79 21.79 0 01-.22-15.84l12.11-34.49-7.35-2.58 4.65-13.24 7.35 2.59 8-22.81h19.52l-10.11 28.91 12.29 4.32-4.64 13.23-12.3-4.32-11.74 33.42q-2.21 6.28 3.81 8.39l6.28 2.21-5.16 14.7zM269.05 125.16l-5.95-17.85h-35.84l-6.09 17.85h-20.55l36.7-100.86h15.44l36.83 100.86zm-23.52-71.11l-12.75 36.69h25.08zM240.13 165.61v-12.18h-9.85v12.18h-5.68v-29.09h5.68v11.89h9.85v-11.89h5.68v29.09zM258.15 149v16.63h-5.32V149h-2.2v-4h2.2v-2.66a6.27 6.27 0 011.6-4.29 5.84 5.84 0 014.62-1.8h3v4.5H260q-1.83 0-1.83 1.92V145h3.92v4zM283.48 165.61L276 152.37l-3.76 4.5v8.74h-5.68v-29.09h5.68v12.67l10.26-12.67h6.9l-9.64 11.56 10.34 17.53z"/></g></g></svg><svg viewBox="0 0 290.1 165.61" id="logo_asta-hfk-bremen_rot" xmlns="http://www.w3.org/2000/svg"><defs><style>.aucls-1{fill:#d50e31}</style></defs><g id="auEbene_2" data-name="Ebene 2"><g id="auEbene_1-2" data-name="Ebene 1"><path class="aucls-1" d="M68.42 125.16l-5.94-17.85H26.63l-6.09 17.85H0L36.69 24.3h15.44L89 125.16zM44.91 54.05L32.16 90.74h25.08zM137.34 100.08q-12.6 4.2-28.09-1.24a63.72 63.72 0 01-18.58-9.75 42 42 0 01-11.77-15l16.26-7.8a26.3 26.3 0 007.93 9.71 44.52 44.52 0 0012.24 6.4q16.85 5.91 21-5.85c1.15-3.29 1.21-6.15.16-8.57s-3.57-4.68-7.54-6.78l-5.06-2.68-5.87-3q-11.55-6-15.67-14.36-4.42-9.21-.25-21.11 4.56-13 16.3-17.78t27 .55a55.24 55.24 0 0116.46 8.71 38.71 38.71 0 0110.39 13.18l-15.85 7.5a21.86 21.86 0 00-7.06-8.34 42.68 42.68 0 00-10.16-5.07q-7.08-2.49-12.09-.41a11.74 11.74 0 00-6.83 7.28 10 10 0 00.57 7.78q1.88 4 7.35 6.86l5.46 2.82 5.2 2.73a51.21 51.21 0 019.82 6.45 24.33 24.33 0 015.78 7.29q4.91 9.52.26 22.76-4.77 13.5-17.36 17.72zM177.27 121.83q-9.9-3.48-13-11.16a21.79 21.79 0 01-.22-15.84l12.11-34.49-7.35-2.58 4.65-13.24 7.35 2.59 8-22.81h19.52l-10.11 28.91 12.29 4.32-4.64 13.23-12.3-4.32-11.74 33.42q-2.21 6.28 3.81 8.39l6.28 2.21-5.16 14.7zM269.05 125.16l-5.95-17.85h-35.84l-6.09 17.85h-20.55l36.7-100.86h15.44l36.83 100.86zm-23.52-71.11l-12.75 36.69h25.08zM240.13 165.61v-12.17h-9.85v12.17h-5.68v-29.09h5.68v11.89h9.85v-11.89h5.68v29.09zM258.15 149v16.63h-5.32V149h-2.2v-4h2.2v-2.66a6.27 6.27 0 011.6-4.29 5.84 5.84 0 014.62-1.8h3v4.5H260q-1.83 0-1.83 1.92V145h3.92v4zM283.48 165.61L276 152.37l-3.76 4.5v8.74h-5.68v-29.09h5.68v12.67l10.26-12.67h6.9l-9.64 11.56 10.34 17.53z"/></g></g></svg><svg viewBox="0 0 290.1 165.61" id="logo_asta-hfk-bremen_schwarz" xmlns="http://www.w3.org/2000/svg"><g data-name="Ebene 2"><g data-name="Ebene 1"><path d="M68.42 125.16l-5.94-17.85H26.63l-6.09 17.85H0L36.69 24.3h15.44L89 125.16zM44.91 54.05L32.16 90.74h25.08zM137.34 100.08q-12.6 4.2-28.09-1.24a63.72 63.72 0 01-18.58-9.75 42 42 0 01-11.77-15l16.26-7.8a26.3 26.3 0 007.93 9.71 44.52 44.52 0 0012.24 6.4q16.85 5.91 21-5.85c1.15-3.29 1.21-6.15.16-8.57s-3.57-4.68-7.54-6.78l-5.06-2.68-5.87-3q-11.55-6-15.67-14.36-4.42-9.21-.25-21.11 4.56-13 16.3-17.78t27 .55a55.24 55.24 0 0116.46 8.71 38.71 38.71 0 0110.39 13.18l-15.85 7.5a21.86 21.86 0 00-7.06-8.34 42.68 42.68 0 00-10.16-5.07q-7.08-2.49-12.09-.41a11.74 11.74 0 00-6.83 7.28 10 10 0 00.57 7.78q1.88 4 7.35 6.86l5.46 2.82 5.2 2.73a51.21 51.21 0 019.82 6.45 24.33 24.33 0 015.78 7.29q4.91 9.52.26 22.76-4.77 13.5-17.36 17.72zM177.27 121.83q-9.9-3.48-13-11.16a21.79 21.79 0 01-.22-15.84l12.11-34.49-7.35-2.58 4.65-13.24 7.35 2.59 8-22.81h19.52l-10.11 28.91 12.29 4.32-4.64 13.23-12.3-4.32-11.74 33.42q-2.21 6.28 3.81 8.39l6.28 2.21-5.16 14.7zM269.05 125.16l-5.95-17.85h-35.84l-6.09 17.85h-20.55l36.7-100.86h15.44l36.83 100.86zm-23.52-71.11l-12.75 36.69h25.08zM240.13 165.61v-12.17h-9.85v12.17h-5.68v-29.09h5.68v11.89h9.85v-11.89h5.68v29.09zM258.15 149v16.63h-5.32V149h-2.2v-4h2.2v-2.66a6.27 6.27 0 011.6-4.29 5.84 5.84 0 014.62-1.8h3v4.5H260q-1.83 0-1.83 1.92V145h3.92v4zM283.48 165.61L276 152.37l-3.76 4.5v8.74h-5.68v-29.09h5.68v12.67l10.26-12.67h6.9l-9.64 11.56 10.34 17.53z"/></g></g></svg><svg viewBox="0 0 290.1 165.61" id="logo_asta-hfk-bremen_tuerkis" xmlns="http://www.w3.org/2000/svg"><defs><style>.awcls-1{fill:#64f5dc}</style></defs><g id="awEbene_2" data-name="Ebene 2"><g id="awEbene_1-2" data-name="Ebene 1"><path class="awcls-1" d="M68.42 125.16l-5.94-17.85H26.63l-6.09 17.85H0L36.69 24.3h15.44L89 125.16zM44.91 54.05L32.16 90.74h25.08zM137.34 100.08q-12.6 4.2-28.09-1.24a63.72 63.72 0 01-18.58-9.75 42 42 0 01-11.77-15l16.26-7.8a26.3 26.3 0 007.93 9.71 44.52 44.52 0 0012.24 6.4q16.85 5.91 21-5.85c1.15-3.29 1.21-6.15.16-8.57s-3.57-4.68-7.54-6.78l-5.06-2.68-5.87-3q-11.55-6-15.67-14.36-4.42-9.21-.25-21.11 4.56-13 16.3-17.78t27 .55a55.24 55.24 0 0116.46 8.71 38.71 38.71 0 0110.39 13.18l-15.85 7.5a21.86 21.86 0 00-7.06-8.34 42.68 42.68 0 00-10.16-5.07q-7.08-2.49-12.09-.41a11.74 11.74 0 00-6.83 7.28 10 10 0 00.57 7.78q1.88 4 7.35 6.86l5.46 2.82 5.2 2.73a51.21 51.21 0 019.82 6.45 24.33 24.33 0 015.78 7.29q4.91 9.52.26 22.76-4.77 13.5-17.36 17.72zM177.27 121.83q-9.9-3.48-13-11.16a21.79 21.79 0 01-.22-15.84l12.11-34.49-7.35-2.58 4.65-13.24 7.35 2.59 8-22.81h19.52l-10.11 28.91 12.29 4.32-4.64 13.23-12.3-4.32-11.74 33.42q-2.21 6.28 3.81 8.39l6.28 2.21-5.16 14.7zM269.05 125.16l-5.95-17.85h-35.84l-6.09 17.85h-20.55l36.7-100.86h15.44l36.83 100.86zm-23.52-71.11l-12.75 36.69h25.08zM240.13 165.61v-12.17h-9.85v12.17h-5.68v-29.09h5.68v11.89h9.85v-11.89h5.68v29.09zM258.15 149v16.63h-5.31V149h-2.21v-4h2.21v-2.66a6.26 6.26 0 011.59-4.29 5.84 5.84 0 014.62-1.8h3v4.5H260c-1.23 0-1.84.64-1.84 1.92V145h3.92v4zM283.48 165.61L276 152.37l-3.76 4.5v8.74h-5.68v-29.09h5.68v12.67l10.26-12.67h6.9l-9.64 11.56 10.34 17.53z"/></g></g></svg><svg viewBox="0 0 290.1 165.61" id="logo_asta-hfk-bremen_weiss" xmlns="http://www.w3.org/2000/svg"><defs><style>.axcls-1{fill:#fff}</style></defs><g id="axEbene_2" data-name="Ebene 2"><g id="axEbene_1-2" data-name="Ebene 1"><path class="axcls-1" d="M68.42 125.16l-5.94-17.85H26.63l-6.09 17.85H0L36.69 24.3h15.44L89 125.16zM44.91 54.05L32.16 90.74h25.08zM137.34 100.08q-12.6 4.2-28.09-1.24a63.72 63.72 0 01-18.58-9.75 42 42 0 01-11.77-15l16.26-7.8a26.3 26.3 0 007.93 9.71 44.52 44.52 0 0012.24 6.4q16.85 5.91 21-5.85c1.15-3.29 1.21-6.15.16-8.57s-3.57-4.68-7.54-6.78l-5.06-2.68-5.87-3q-11.55-6-15.67-14.36-4.42-9.21-.25-21.11 4.56-13 16.3-17.78t27 .55a55.24 55.24 0 0116.46 8.71 38.71 38.71 0 0110.39 13.18l-15.85 7.5a21.86 21.86 0 00-7.06-8.34 42.68 42.68 0 00-10.16-5.07q-7.08-2.49-12.09-.41a11.74 11.74 0 00-6.83 7.28 10 10 0 00.57 7.78q1.88 4 7.35 6.86l5.46 2.82 5.2 2.73a51.21 51.21 0 019.82 6.45 24.33 24.33 0 015.78 7.29q4.91 9.52.26 22.76-4.77 13.5-17.36 17.72zM177.27 121.83q-9.9-3.48-13-11.16a21.79 21.79 0 01-.22-15.84l12.11-34.49-7.35-2.58 4.65-13.24 7.35 2.59 8-22.81h19.52l-10.11 28.91 12.29 4.32-4.64 13.23-12.3-4.32-11.74 33.42q-2.21 6.28 3.81 8.39l6.28 2.21-5.16 14.7zM269.05 125.16l-5.95-17.85h-35.84l-6.09 17.85h-20.55l36.7-100.86h15.44l36.83 100.86zm-23.52-71.11l-12.75 36.69h25.08zM240.13 165.61v-12.17h-9.85v12.17h-5.68v-29.09h5.68v11.89h9.85v-11.89h5.68v29.09zM258.15 149v16.63h-5.31V149h-2.21v-4h2.21v-2.66a6.26 6.26 0 011.59-4.29 5.84 5.84 0 014.62-1.8h3v4.5H260c-1.23 0-1.84.64-1.84 1.92V145h3.92v4zM283.48 165.61L276 152.37l-3.76 4.5v8.74h-5.68v-29.09h5.68v12.67l10.26-12.67h6.9l-9.64 11.56 10.34 17.53z"/></g></g></svg><svg viewBox="0 0 38.56 56.75" id="m_arrow_elevator" xmlns="http://www.w3.org/2000/svg"><defs><style>.aycls-1{fill:none;stroke:#5a00be;stroke-width:2px}</style></defs><g id="ayEbene_2" data-name="Ebene 2"><g id="ayEbene_1-2" data-name="Ebene 1"><g id="ayGruppe_34" data-name="Gruppe 34"><path id="ayPfad_79" data-name="Pfad 79" class="aycls-1" d="M37.74 28.68L19.28 1.77.82 28.68"/><path id="ayPfad_80" data-name="Pfad 80" class="aycls-1" d="M19.26 56.75V3.18"/></g></g></g></svg><svg viewBox="0 0 26.43 45.77" id="m_arrow_elevator_burger" xmlns="http://www.w3.org/2000/svg"><defs><style>.azcls-1{fill:none;stroke:#5a00be;stroke-width:3px}</style></defs><g id="azEbene_2" data-name="Ebene 2"><g id="azEbene_1-2" data-name="Ebene 1"><g id="azGruppe_128" data-name="Gruppe 128"><path id="azPfad_79" data-name="Pfad 79" class="azcls-1" d="M25.19 20.12l-12-17.47-12 17.47"/><path id="azPfad_80" data-name="Pfad 80" class="azcls-1" d="M13.2 45.77V3.57"/></g></g></g></svg><svg viewBox="0 0 26.43 45.77" id="m_arrow_elevator_burger-red" xmlns="http://www.w3.org/2000/svg"><defs><style>.bacls-1{fill:none;stroke:#d50e31;stroke-width:3px}</style></defs><g id="baEbene_2" data-name="Ebene 2"><g id="baEbene_1-2" data-name="Ebene 1"><g id="baGruppe_128" data-name="Gruppe 128"><path id="baPfad_79" data-name="Pfad 79" class="bacls-1" d="M25.19 20.12l-12-17.47-12 17.47"/><path id="baPfad_80" data-name="Pfad 80" class="bacls-1" d="M13.2 45.77V3.57"/></g></g></g></svg><svg viewBox="0 0 38.56 56.75" id="m_arrow_elevator_red" xmlns="http://www.w3.org/2000/svg"><defs><style>.bbcls-1{fill:none;stroke:#d50e31;stroke-width:2px}</style></defs><g id="bbEbene_2" data-name="Ebene 2"><g id="bbEbene_1-2" data-name="Ebene 1"><g id="bbGruppe_34" data-name="Gruppe 34"><path id="bbPfad_79" data-name="Pfad 79" class="bbcls-1" d="M37.74 28.68L19.28 1.77.82 28.68"/><path id="bbPfad_80" data-name="Pfad 80" class="bbcls-1" d="M19.26 56.75V3.18"/></g></g></g></svg><svg viewBox="0 0 16.2 10.1" id="m_arrow_nav" xmlns="http://www.w3.org/2000/svg"><defs><style>.bccls-1{fill:none;stroke:#5a00be;stroke-width:2px}</style></defs><g id="bcEbene_2" data-name="Ebene 2"><g id="bcEbene_1-2" data-name="Ebene 1"><path id="bcPfad_193" data-name="Pfad 193" class="bccls-1" d="M.73.68l7.37 8 7.37-8"/></g></g></svg><svg viewBox="0 0 16.2 10.1" id="m_arrow_nav-red" xmlns="http://www.w3.org/2000/svg"><defs><style>.bdcls-1{fill:none;stroke:#d50e31;stroke-width:2px}</style></defs><g id="bdEbene_2" data-name="Ebene 2"><g id="bdEbene_1-2" data-name="Ebene 1"><path id="bdPfad_193" data-name="Pfad 193" class="bdcls-1" d="M.73.68l7.37 8 7.37-8"/></g></g></svg><svg viewBox="0 0 14.33 20" id="m_link_download" xmlns="http://www.w3.org/2000/svg"><defs><style>.becls-1{fill:none;stroke:#5a00be;stroke-width:2px}</style></defs><g id="beEbene_2" data-name="Ebene 2"><g id="beEbene_1-2" data-name="Ebene 1"><g id="beGruppe_113" data-name="Gruppe 113"><path id="bePfad_79" data-name="Pfad 79" class="becls-1" d="M1.64 6.84l5.53 8.06 5.53-8.06"/><path id="bePfad_80" data-name="Pfad 80" class="becls-1" d="M7.18 0v14.48"/></g><path class="becls-1" d="M0 19h14.33"/></g></g></svg><svg viewBox="0 0 14.33 20" id="m_link_download-red" xmlns="http://www.w3.org/2000/svg"><defs><style>.bfcls-1{fill:none;stroke:#d50e31;stroke-width:2px}</style></defs><g id="bfEbene_2" data-name="Ebene 2"><g id="bfEbene_1-2" data-name="Ebene 1"><g id="bfGruppe_113" data-name="Gruppe 113"><path id="bfPfad_79" data-name="Pfad 79" class="bfcls-1" d="M1.64 6.84l5.53 8.06 5.53-8.06"/><path id="bfPfad_80" data-name="Pfad 80" class="bfcls-1" d="M7.18 0v14.48"/></g><path class="bfcls-1" d="M0 19h14.33"/></g></g></svg><svg viewBox="0 0 14.24 20.06" id="m_link_drive" xmlns="http://www.w3.org/2000/svg"><defs><style>.bgcls-1{fill:none;stroke:#5a00be;stroke-width:2px}</style></defs><g id="bgEbene_2" data-name="Ebene 2"><g id="bgEbene_1-2" data-name="Ebene 1"><g id="bgGruppe_165" data-name="Gruppe 165"><path id="bgRechteck_130" data-name="Rechteck 130" class="bgcls-1" d="M1 9.45h12.24v9.61H1z"/><path id="bgPfad_176" data-name="Pfad 176" class="bgcls-1" d="M11.44 5.32a4.32 4.32 0 10-8.64 0v4.35"/></g></g></g></svg><svg viewBox="0 0 14.24 20.06" id="m_link_drive-red" xmlns="http://www.w3.org/2000/svg"><defs><style>.bhcls-1{fill:none;stroke:#d50e31;stroke-width:2px}</style></defs><g id="bhEbene_2" data-name="Ebene 2"><g id="bhEbene_1-2" data-name="Ebene 1"><g id="bhGruppe_165" data-name="Gruppe 165"><path id="bhRechteck_130" data-name="Rechteck 130" class="bhcls-1" d="M1 9.45h12.24v9.61H1z"/><path id="bhPfad_176" data-name="Pfad 176" class="bhcls-1" d="M11.44 5.32a4.32 4.32 0 10-8.64 0v4.35"/></g></g></g></svg><svg viewBox="0 0 19.98 19.93" id="m_link_external" xmlns="http://www.w3.org/2000/svg"><defs><style>.bicls-1{fill:none;stroke:#5a00be;stroke-width:2px}</style></defs><g id="biEbene_2" data-name="Ebene 2"><g id="biEbene_1-2" data-name="Ebene 1"><g id="biGruppe_113" data-name="Gruppe 113"><path id="biPfad_79" data-name="Pfad 79" class="bicls-1" d="M17.18 9.56l1.55-8.31-8.31 1.55"/><path id="biPfad_80" data-name="Pfad 80" class="bicls-1" d="M7.52 12.46l11-11"/></g><path id="biPfad_178" data-name="Pfad 178" class="bicls-1" d="M14.67 12.09v6.84H1V5.25h6.84"/></g></g></svg><svg viewBox="0 0 19.98 19.93" id="m_link_external-red" xmlns="http://www.w3.org/2000/svg"><defs><style>.bjcls-1{fill:none;stroke:#d50e31;stroke-width:2px}</style></defs><g id="bjEbene_2" data-name="Ebene 2"><g id="bjEbene_1-2" data-name="Ebene 1"><g id="bjGruppe_113" data-name="Gruppe 113"><path id="bjPfad_79" data-name="Pfad 79" class="bjcls-1" d="M17.18 9.56l1.55-8.31-8.31 1.55"/><path id="bjPfad_80" data-name="Pfad 80" class="bjcls-1" d="M7.52 12.46l11-11"/></g><path id="bjPfad_178" data-name="Pfad 178" class="bjcls-1" d="M14.67 12.09v6.84H1V5.25h6.84"/></g></g></svg><svg viewBox="0 0 27.96 19.98" id="m_link_internal" xmlns="http://www.w3.org/2000/svg"><defs><style>.bkcls-1{fill:none;stroke:#5a00be;stroke-width:2px}</style></defs><g id="bkEbene_2" data-name="Ebene 2"><g id="bkEbene_1-2" data-name="Ebene 1"><g id="bkGruppe_113" data-name="Gruppe 113"><path id="bkPfad_79" data-name="Pfad 79" class="bkcls-1" d="M12.83 19.15L26.19 10 12.83.82"/><path id="bkPfad_80" data-name="Pfad 80" class="bkcls-1" d="M0 10h25.49"/></g></g></g></svg><svg viewBox="0 0 27.96 19.98" id="m_link_internal-red" xmlns="http://www.w3.org/2000/svg"><defs><style>.blcls-1{fill:none;stroke:#d50e31;stroke-width:2px}</style></defs><g id="blEbene_2" data-name="Ebene 2"><g id="blEbene_1-2" data-name="Ebene 1"><g id="blGruppe_113" data-name="Gruppe 113"><path id="blPfad_79" data-name="Pfad 79" class="blcls-1" d="M12.83 19.15L26.19 10 12.83.82"/><path id="blPfad_80" data-name="Pfad 80" class="blcls-1" d="M0 10h25.49"/></g></g></g></svg><svg viewBox="0 0 19.71 19.84" id="m_link_portal" xmlns="http://www.w3.org/2000/svg"><defs><style>.bmcls-1{fill:none;stroke:#5a00be;stroke-width:2px}</style></defs><g id="bmEbene_2" data-name="Ebene 2"><g id="bmEbene_1-2" data-name="Ebene 1"><g id="bmGruppe_300" data-name="Gruppe 300"><g id="bmGruppe_113-3" data-name="Gruppe 113-3"><path id="bmPfad_79-4" data-name="Pfad 79-4" class="bmcls-1" d="M7.4 13.84l5.95-3.91L7.56 5.8"/><path id="bmPfad_80-4" data-name="Pfad 80-4" class="bmcls-1" d="M0 9.67l13 .25"/></g><path id="bmPfad_188-2" data-name="Pfad 188-2" class="bmcls-1" d="M4.56 4.64L4.63 1l14.06.23-.34 17.58-14.06-.22.07-3.59"/></g></g></g></svg><svg viewBox="0 0 19.71 19.84" id="m_link_portal-red" xmlns="http://www.w3.org/2000/svg"><defs><style>.bncls-1{fill:none;stroke:#d50e31;stroke-width:2px}</style></defs><g id="bnEbene_2" data-name="Ebene 2"><g id="bnEbene_1-2" data-name="Ebene 1"><g id="bnGruppe_300" data-name="Gruppe 300"><g id="bnGruppe_113-3" data-name="Gruppe 113-3"><path id="bnPfad_79-4" data-name="Pfad 79-4" class="bncls-1" d="M7.4 13.84l5.95-3.91L7.56 5.8"/><path id="bnPfad_80-4" data-name="Pfad 80-4" class="bncls-1" d="M0 9.67l13 .25"/></g><path id="bnPfad_188-2" data-name="Pfad 188-2" class="bncls-1" d="M4.56 4.64L4.63 1l14.06.23-.34 17.58-14.06-.22.07-3.59"/></g></g></g></svg><svg viewBox="0 0 23.29 23.29" id="m_search" xmlns="http://www.w3.org/2000/svg"><defs><style>.bocls-1{fill:none;stroke:#5a00be;stroke-width:2px}</style></defs><g id="boEbene_2" data-name="Ebene 2"><g id="boEbene_1-2" data-name="Ebene 1"><g id="boGruppe_198" data-name="Gruppe 198"><path id="boPfad_190" data-name="Pfad 190" class="bocls-1" d="M19.14 10.07A9.07 9.07 0 1110.07 1a9 9 0 019.07 9z"/><path id="boLinie_3" data-name="Linie 3" class="bocls-1" d="M16.47 16.47l6.11 6.11"/></g></g></g></svg><svg viewBox="0 0 374.38 142.28" id="m_swoosh_1" xmlns="http://www.w3.org/2000/svg"><defs><style>.bpcls-1{fill:none;stroke:#5a00be;stroke-linecap:square;stroke-width:2px}</style></defs><g id="bpEbene_2" data-name="Ebene 2"><g id="bpEbene_1-2" data-name="Ebene 1"><path id="bpPfad_38" data-name="Pfad 38" class="bpcls-1" d="M373 1.41S292.37 99 188.75 129.22s-187.44-6-187.44-6"/></g></g></svg><svg viewBox="0 0 262.39 189.6" id="m_swoosh_2" xmlns="http://www.w3.org/2000/svg"><defs><style>.bqcls-1{fill:none;stroke:#5a00be;stroke-linecap:square;stroke-width:2px}</style></defs><g id="bqEbene_2" data-name="Ebene 2"><g id="bqEbene_1-2" data-name="Ebene 1"><path id="bqPfad_38-2" data-name="Pfad 38-2" class="bqcls-1" d="M261.35 1s-6.46 150.61-110.09 180.88-149.9-52.1-149.9-52.1"/></g></g></svg><svg viewBox="0 0 226.88 217.67" id="m_swoosh_3" xmlns="http://www.w3.org/2000/svg"><defs><style>.brcls-1{fill:none;stroke:#5a00be;stroke-linecap:square;stroke-width:2px}</style></defs><g id="brEbene_2" data-name="Ebene 2"><g id="brEbene_1-2" data-name="Ebene 1"><path id="brPfad_38" data-name="Pfad 38" class="brcls-1" d="M212.35 1.24s53 179.71-50.67 210S1.35 135.85 1.35 135.85"/></g></g></svg></svg>