<?xml version="1.0" encoding="utf-8"?><svg viewBox="0 0 500.07 500" xmlns="http://www.w3.org/2000/svg" xmlns:xlink="http://www.w3.org/1999/xlink"><style>:root>svg{display:none}:root>svg:target{display:block}</style><svg version="1.1" id="icon_facebook" x="0" y="0" viewBox="0 0 496.41 500" xml:space="preserve" xmlns="http://www.w3.org/2000/svg"><style>.aast0{fill:#5a00be}</style><path id="aaPfad_84" class="aast0" d="M496.58 250.43c0 45.55.16 91.02 0 136.52.67 61.54-48.67 111.97-110.21 112.64-.85.01-1.68.01-2.53 0-10.25.1-20.5-.25-30.66.07-9 .29-13.23-3.06-13.19-12.58.25-56.57.31-113.13.16-169.69 0-8.56 3.49-12.42 12.21-12.23 12.78.28 25.58-.39 38.34.17 6.87 1.46 13.62-2.94 15.08-9.81.2-.95.29-1.92.27-2.89 2.11-16.44 4.51-32.84 7.22-49.2 1.42-8.58-1.98-11.76-10.25-11.71-16.62.11-33.22-.26-49.83 0-9.11.17-13.3-3.42-13.04-12.77.38-13.18-.28-26.39.27-39.55.91-21.27 8.72-30.01 29.72-32.71a292.33 292.33 0 0134.37-1.79c8.5-.07 12.53-3.26 12.4-12.07-.28-13.6-.28-27.21 0-40.83.18-8.97-3.41-13.44-12.75-13.38-20.02.14-40.1-.97-60.04.15-43.16 3.26-76.82 38.72-77.82 82-.67 16.99-.18 34.02-.25 51.03-.08 19.14-.68 19.74-20.4 19.78-11.08 0-22.15.25-33.22 0-8.36-.22-12.75 2.72-12.53 11.74.31 17 .23 34.03.08 51.03-.06 7.5 3.26 10.82 10.78 10.74 14.05-.15 28.12.26 42.14 0 9.27-.18 13.15 4.02 13.14 13.01-.06 56.14-.06 112.28 0 168.42 0 9.11-3.79 13.08-13.03 13.05-48.97-.19-98.02 1.37-146.91-.55C45.96 496.82-1.26 446.7.08 386.52c-.13-90.16-.11-180.33.1-270.51C.27 48.76 46.95.28 114.43-.4c89.02-.89 178.04-.89 267.07 0 68.49.6 114.78 48.48 114.91 116.83.09 44.66.09 89.31 0 133.97l.17.03z"/></svg><svg version="1.1" id="icon_instagram" x="0" y="0" viewBox="0 0 500.07 500" xml:space="preserve" xmlns="http://www.w3.org/2000/svg"><style>.abst0{fill:#5a00be}</style><g id="abGruppe_38" transform="translate(-1754.316 45.314)"><g id="abGruppe_11"><g id="abGruppe_6" transform="translate(1818.511 1013.686)"><path id="abPfad_5" class="abst0" d="M267.61-559H104.2c-1.05-.19-2.1-.47-3.16-.57-17.24-1.5-34.66-1.86-51.68-4.72a128.287 128.287 0 01-80.19-45.73 150.887 150.887 0 01-31.65-88.88c-.66-9.5-1.14-19-1.72-28.52v-163.4c.26-1.04.45-2.1.56-3.17 0-18.59 1.77-37.13 5.28-55.38 9.12-50.31 47.14-90.45 96.88-102.29 22.4-5.42 45.42-7.83 68.45-7.17 54.55-.4 109.16-.06 163.74.3 18.59-.3 37.16 1.44 55.37 5.17 50.32 9.09 90.5 47.08 102.38 96.82 5.45 22.54 7.87 45.7 7.19 68.87.39 54.44.25 108.88-.41 163.31-.21 17.32-1.72 34.61-4.55 51.7-4.73 31.49-21 60.09-45.65 80.24a150.956 150.956 0 01-89.32 31.72c-9.35.63-18.73 1.13-28.11 1.7M-18.92-809.17h.38c0 22.91-.44 45.85.14 68.75.48 18.7 1.39 37.51 3.59 56.01a86.149 86.149 0 0021.24 47.93 93.868 93.868 0 0066.6 29.78c22.53 1.68 45.19 2.17 67.81 2.27 37.64.26 75.29.2 112.93-.42 18.97-.32 38.01-1.44 56.83-3.58a85.934 85.934 0 0044.42-18.3 92.503 92.503 0 0033.29-69.54c1.69-22.54 2.16-45.2 2.27-67.81.27-37.64.22-75.29-.41-112.94-.32-18.97-1.44-37.99-3.58-56.83a85.932 85.932 0 00-18.3-44.43 92.417 92.417 0 00-69.56-33.28c-23.3-1.66-46.79-2.06-70.24-2.28-36.94-.27-73.87-.2-110.83.42-18.83.32-37.72 1.45-56.43 3.58a85.934 85.934 0 00-44.42 18.3A92.315 92.315 0 00-16.51-922c-1.7 23.37-1.85 46.86-2.38 70.31-.32 14.16-.06 28.34-.06 42.52"/></g><g id="abGruppe_7" transform="translate(1822.642 991.673)"><path id="abPfad_6" class="abst0" d="M310.43-787.17c.1 70.99-57.37 128.62-128.36 128.72H182c-71 .17-128.69-57.25-128.86-128.25v-.48c-.03-70.98 57.49-128.54 128.47-128.56h.19c70.99-.04 128.58 57.47 128.62 128.46.01.04.01.08.01.11m-45.53.09c-.04-45.85-37.11-83.06-82.97-83.27-46.01.17-83.27 37.43-83.42 83.44.26 45.54 36.99 82.46 82.52 82.97 45.88.44 83.42-36.39 83.86-82.27.01-.29.01-.58.01-.87"/></g><g id="abGruppe_8" transform="translate(1823.073 982.583)"><path id="abPfad_7" class="abst0" d="M314.9-881.39c-16.42.23-29.93-12.89-30.16-29.32v-.66c-.25-16.46 12.88-30 29.34-30.25h.94c16.51-.06 29.94 13.28 29.99 29.79v.45c.11 16.46-13.14 29.89-29.59 30.01-.18-.02-.35-.02-.52-.02"/></g></g></g></svg><svg viewBox="0 0 59.33 87.33" id="l_arrow_elevator" xmlns="http://www.w3.org/2000/svg"><defs><style>.accls-1{fill:none;stroke:#5a00be;stroke-width:3px}</style></defs><g id="acEbene_2" data-name="Ebene 2"><g id="acEbene_1-2" data-name="Ebene 1"><g id="acGruppe_34" data-name="Gruppe 34"><path id="acPfad_79" data-name="Pfad 79" class="accls-1" d="M58.09 44.11L29.66 2.65 1.24 44.11"/><path id="acPfad_80" data-name="Pfad 80" class="accls-1" d="M29.64 87.33V4.83"/></g></g></g></svg><svg viewBox="0 0 22.79 14.34" id="l_arrow_nav" xmlns="http://www.w3.org/2000/svg"><defs><style>.adcls-1{fill:none;stroke:#5a00be;stroke-width:3px}</style></defs><g id="adEbene_2" data-name="Ebene 2"><g id="adEbene_1-2" data-name="Ebene 1"><path id="adPfad_193" data-name="Pfad 193" class="adcls-1" d="M1.1 1l10.3 11.14L21.69 1"/></g></g></svg><svg viewBox="0 0 22.79 14.34" id="l_arrow_nav-red" xmlns="http://www.w3.org/2000/svg"><defs><style>.aecls-1{fill:none;stroke:#d50e31;stroke-width:3px}</style></defs><g id="aeEbene_2" data-name="Ebene 2"><g id="aeEbene_1-2" data-name="Ebene 1"><path id="aePfad_193" data-name="Pfad 193" class="aecls-1" d="M1.1 1l10.3 11.14L21.69 1"/></g></g></svg><svg version="1.1" id="l_link_download" x="0" y="0" viewBox="0 0 36 26" xml:space="preserve" xmlns="http://www.w3.org/2000/svg"><style>.afst0{fill:none;stroke:#5a00be;stroke-width:3}</style><g id="afEbene_2_11_"><g id="afEbene_1-2_11_"><g id="afGruppe_113_6_"><path id="afPfad_79_6_" class="afst0" d="M11 8.6l7 10.2 7-10.2"/><path id="afPfad_80_6_" class="afst0" d="M18 0v18.3"/></g><path class="afst0" d="M8.9 24h18.2"/></g></g></svg><svg version="1.1" id="l_link_download-red" x="0" y="0" viewBox="0 0 36 26" xml:space="preserve" xmlns="http://www.w3.org/2000/svg"><style>.agst0{fill:none;stroke:#d50e31;stroke-width:3}</style><g id="agEbene_2_1_"><g id="agEbene_1-2_1_"><g id="agGruppe_113_7_"><path id="agPfad_79_7_" class="agst0" d="M11 8.6l7 10.2 7-10.2"/><path id="agPfad_80_7_" class="agst0" d="M18 0v18.3"/></g><path class="agst0" d="M8.9 24h18.2"/></g></g></svg><svg version="1.1" id="l_link_drive" x="0" y="0" viewBox="0 0 36 26" xml:space="preserve" xmlns="http://www.w3.org/2000/svg"><style>.ahst0{fill:none;stroke:#5a00be;stroke-width:3}</style><g id="ahEbene_2_2_"><g id="ahEbene_1-2_2_"><g id="ahGruppe_165_2_"><path id="ahRechteck_130_2_" class="ahst0" d="M10.3 12.2h15.5v12.2H10.3z"/><path id="ahPfad_176_2_" class="ahst0" d="M23.5 7c0-3-2.4-5.5-5.5-5.5S12.5 3.9 12.5 7v5.5"/></g></g></g></svg><svg version="1.1" id="l_link_drive-red" x="0" y="0" viewBox="0 0 36 26" xml:space="preserve" xmlns="http://www.w3.org/2000/svg"><style>.aist0{fill:none;stroke:#d50e31;stroke-width:3}</style><g id="aiEbene_2_3_"><g id="aiEbene_1-2_3_"><g id="aiGruppe_165_3_"><path id="aiRechteck_130_3_" class="aist0" d="M10.3 12.2h15.5v12.2H10.3z"/><path id="aiPfad_176_3_" class="aist0" d="M23.5 7c0-3-2.4-5.5-5.5-5.5S12.5 3.9 12.5 7v5.5"/></g></g></g></svg><svg version="1.1" id="l_link_external" x="0" y="0" viewBox="0 0 36 26" xml:space="preserve" xmlns="http://www.w3.org/2000/svg"><style>.ajst0{fill:none;stroke:#5a00be;stroke-width:3}</style><g id="ajEbene_2_4_"><g id="ajEbene_1-2_4_"><g id="ajGruppe_113_1_"><path id="ajPfad_79_1_" class="ajst0" d="M27.3 12.4l2-10.5-10.5 2"/><path id="ajPfad_80_1_" class="ajst0" d="M15 16.1L28.8 2.2"/></g><path id="ajPfad_178_2_" class="ajst0" d="M24 15.6v8.6H6.8V6.9h8.6"/></g></g></svg><svg version="1.1" id="l_link_external-red" x="0" y="0" viewBox="0 0 36 26" xml:space="preserve" xmlns="http://www.w3.org/2000/svg"><style>.akst0{fill:none;stroke:#d50e31;stroke-width:3}</style><g id="akEbene_2_5_"><g id="akEbene_1-2_5_"><g id="akGruppe_113_2_"><path id="akPfad_79_2_" class="akst0" d="M27.3 12.4l2-10.5-10.5 2"/><path id="akPfad_80_2_" class="akst0" d="M15 16.1L28.8 2.2"/></g><path id="akPfad_178_3_" class="akst0" d="M24 15.6v8.6H6.8V6.9h8.6"/></g></g></svg><svg version="1.1" id="l_link_internal" x="0" y="0" viewBox="0 0 36 27.4" xml:space="preserve" xmlns="http://www.w3.org/2000/svg"><style>.alst0{fill:none;stroke:#5a00be;stroke-width:3}</style><g id="alEbene_2_12_"><g id="alEbene_1-2_12_"><g id="alGruppe_113_5_"><path id="alPfad_79_5_" class="alst0" d="M13.8 21.3l11-7.9-11-7.9"/><path id="alPfad_80_5_" class="alst0" d="M0 13.4h24.2"/></g></g></g></svg><svg version="1.1" id="l_link_internal-red" x="0" y="0" viewBox="0 0 36 27.4" xml:space="preserve" xmlns="http://www.w3.org/2000/svg"><style>.amst0{fill:none;stroke:#d50e31;stroke-width:3}</style><g id="amEbene_2_10_"><g id="amEbene_1-2_10_"><g id="amGruppe_113"><path id="amPfad_79" class="amst0" d="M13.8 21.3l11-7.9-11-7.9"/><path id="amPfad_80" class="amst0" d="M0 13.4h24.2"/></g></g></g></svg><svg version="1.1" id="l_link_mail" x="0" y="0" viewBox="0 0 36 27.4" xml:space="preserve" xmlns="http://www.w3.org/2000/svg"><style>.anst0{fill:none;stroke:#5a00be;stroke-width:3}</style><g id="anEbene_2"><g id="anEbene_1-2"><path class="anst0" d="M1.5 5.7h23.6v15.4H1.5z"/><path class="anst0" d="M25.1 5.7l-11.8 9.5L1.5 5.7"/></g></g></svg><svg version="1.1" id="l_link_mail-red" x="0" y="0" viewBox="0 0 36 27.4" xml:space="preserve" xmlns="http://www.w3.org/2000/svg"><style>.aost0{fill:none;stroke:#d50e31;stroke-width:3}</style><g id="aoEbene_2_15_"><g id="aoEbene_1-2_15_"><path class="aost0" d="M1.5 5.7h23.6v15.4H1.5z"/><path class="aost0" d="M25.1 5.7l-11.8 9.5L1.5 5.7"/></g></g></svg><svg version="1.1" id="l_link_portal" x="0" y="0" viewBox="0 0 36 27.4" xml:space="preserve" xmlns="http://www.w3.org/2000/svg"><style>.apst0{fill:none;stroke:#5a00be;stroke-width:3}</style><g id="apEbene_2_14_"><g id="apEbene_1-2_14_"><path class="apst0" d="M6.2 19.9v5.7h19.2V1.7H6.2v4.6"/><g id="apGruppe_113_9_"><path id="apPfad_79_9_" class="apst0" d="M10.1 19.1l8.1-5.6L10.1 8"/><path id="apPfad_80_9_" class="apst0" d="M0 13.5h17.8"/></g></g></g></svg><svg version="1.1" id="l_link_portal-red" x="0" y="0" viewBox="0 0 36 27.4" xml:space="preserve" xmlns="http://www.w3.org/2000/svg"><style>.aqst0{fill:none;stroke:#d50e31;stroke-width:3}</style><g id="aqEbene_2_13_"><g id="aqEbene_1-2_13_"><path class="aqst0" d="M6.2 19.9v5.7h19.2V1.7H6.2v4.6"/><g id="aqGruppe_113_8_"><path id="aqPfad_79_8_" class="aqst0" d="M10.1 19.1l8.1-5.6L10.1 8"/><path id="aqPfad_80_8_" class="aqst0" d="M0 13.5h17.8"/></g></g></g></svg><svg viewBox="0 0 30.99 30.99" id="l_search" xmlns="http://www.w3.org/2000/svg"><defs><style>.arcls-1{fill:none;stroke:#5a00be;stroke-width:3px}</style></defs><g id="arEbene_2" data-name="Ebene 2"><g id="arEbene_1-2" data-name="Ebene 1"><g id="arGruppe_198" data-name="Gruppe 198"><path id="arPfad_190" data-name="Pfad 190" class="arcls-1" d="M25.4 13.45A12 12 0 1113.45 1.5a11.92 11.92 0 0112 11.89z"/><path id="arLinie_3" data-name="Linie 3" class="arcls-1" d="M21.88 21.88l8.05 8.05"/></g></g></g></svg><svg version="1.1" id="l_swoosh_1" x="0" y="0" viewBox="0 0 271 223" xml:space="preserve" xmlns="http://www.w3.org/2000/svg"><style>.asst0{fill:none;stroke:#5a00be;stroke-width:3;stroke-linecap:square}</style><g id="asEbene_2"><g id="asEbene_1-2"><path id="asPfad_38" class="asst0" d="M253.5 3s-5.4 78.5-93.1 99.5C55.5 127.6 15.5 75.6 15.5 75.6"/></g></g></svg><svg version="1.1" id="l_swoosh_2" x="0" y="0" viewBox="0 0 271 223" xml:space="preserve" xmlns="http://www.w3.org/2000/svg"><style>.atst0{fill:none;stroke:#5a00be;stroke-width:3;stroke-linecap:square}</style><g id="atEbene_2_2_"><g id="atEbene_1-2_2_"><path id="atPfad_38-2" class="atst0" d="M252 0s8.3 141-95.4 171.3S7.3 115.9 7.3 115.9"/></g></g></svg><svg version="1.1" id="l_swoosh_3" x="0" y="0" viewBox="0 0 271 223" xml:space="preserve" xmlns="http://www.w3.org/2000/svg"><style>.aust0{fill:none;stroke:#5a00be;stroke-width:3;stroke-linecap:square}</style><g id="auEbene_2_1_"><g id="auEbene_1-2_1_"><path id="auPfad_38_1_" class="aust0" d="M253 2.1s53 179.7-50.7 210S42 136.7 42 136.7"/></g></g></svg><svg viewBox="0 0 290.1 165.61" id="logo_asta-hfk-bremen_lila" xmlns="http://www.w3.org/2000/svg"><defs><style>.avcls-1{fill:#5a00be}</style></defs><g id="avEbene_2" data-name="Ebene 2"><g id="avEbene_1-2" data-name="Ebene 1"><path class="avcls-1" d="M68.42 125.16l-5.94-17.85H26.63l-6.09 17.85H0L36.69 24.3h15.44L89 125.16zM44.91 54.05L32.16 90.74h25.08zM137.34 100.08q-12.6 4.2-28.09-1.24a63.72 63.72 0 01-18.58-9.75 42 42 0 01-11.77-15l16.26-7.8a26.3 26.3 0 007.93 9.71 44.52 44.52 0 0012.24 6.4q16.85 5.91 21-5.85c1.15-3.29 1.21-6.15.16-8.57s-3.57-4.68-7.54-6.78l-5.06-2.68-5.87-3q-11.55-6-15.67-14.36-4.42-9.21-.25-21.11 4.56-13 16.3-17.78t27 .55a55.24 55.24 0 0116.46 8.71 38.71 38.71 0 0110.39 13.18l-15.85 7.5a21.86 21.86 0 00-7.06-8.34 42.68 42.68 0 00-10.16-5.07q-7.08-2.49-12.09-.41a11.74 11.74 0 00-6.83 7.28 10 10 0 00.57 7.78q1.88 4 7.35 6.86l5.46 2.82 5.2 2.73a51.21 51.21 0 019.82 6.45 24.33 24.33 0 015.78 7.29q4.91 9.52.26 22.76-4.77 13.5-17.36 17.72zM177.27 121.83q-9.9-3.48-13-11.16a21.79 21.79 0 01-.22-15.84l12.11-34.49-7.35-2.58 4.65-13.24 7.35 2.59 8-22.81h19.52l-10.11 28.91 12.29 4.32-4.64 13.23-12.3-4.32-11.74 33.42q-2.21 6.28 3.81 8.39l6.28 2.21-5.16 14.7zM269.05 125.16l-5.95-17.85h-35.84l-6.09 17.85h-20.55l36.7-100.86h15.44l36.83 100.86zm-23.52-71.11l-12.75 36.69h25.08zM240.13 165.61v-12.18h-9.85v12.18h-5.68v-29.09h5.68v11.89h9.85v-11.89h5.68v29.09zM258.15 149v16.63h-5.32V149h-2.2v-4h2.2v-2.66a6.27 6.27 0 011.6-4.29 5.84 5.84 0 014.62-1.8h3v4.5H260q-1.83 0-1.83 1.92V145h3.92v4zM283.48 165.61L276 152.37l-3.76 4.5v8.74h-5.68v-29.09h5.68v12.67l10.26-12.67h6.9l-9.64 11.56 10.34 17.53z"/></g></g></svg><svg viewBox="0 0 290.1 165.61" id="logo_asta-hfk-bremen_rot" xmlns="http://www.w3.org/2000/svg"><defs><style>.awcls-1{fill:#d50e31}</style></defs><g id="awEbene_2" data-name="Ebene 2"><g id="awEbene_1-2" data-name="Ebene 1"><path class="awcls-1" d="M68.42 125.16l-5.94-17.85H26.63l-6.09 17.85H0L36.69 24.3h15.44L89 125.16zM44.91 54.05L32.16 90.74h25.08zM137.34 100.08q-12.6 4.2-28.09-1.24a63.72 63.72 0 01-18.58-9.75 42 42 0 01-11.77-15l16.26-7.8a26.3 26.3 0 007.93 9.71 44.52 44.52 0 0012.24 6.4q16.85 5.91 21-5.85c1.15-3.29 1.21-6.15.16-8.57s-3.57-4.68-7.54-6.78l-5.06-2.68-5.87-3q-11.55-6-15.67-14.36-4.42-9.21-.25-21.11 4.56-13 16.3-17.78t27 .55a55.24 55.24 0 0116.46 8.71 38.71 38.71 0 0110.39 13.18l-15.85 7.5a21.86 21.86 0 00-7.06-8.34 42.68 42.68 0 00-10.16-5.07q-7.08-2.49-12.09-.41a11.74 11.74 0 00-6.83 7.28 10 10 0 00.57 7.78q1.88 4 7.35 6.86l5.46 2.82 5.2 2.73a51.21 51.21 0 019.82 6.45 24.33 24.33 0 015.78 7.29q4.91 9.52.26 22.76-4.77 13.5-17.36 17.72zM177.27 121.83q-9.9-3.48-13-11.16a21.79 21.79 0 01-.22-15.84l12.11-34.49-7.35-2.58 4.65-13.24 7.35 2.59 8-22.81h19.52l-10.11 28.91 12.29 4.32-4.64 13.23-12.3-4.32-11.74 33.42q-2.21 6.28 3.81 8.39l6.28 2.21-5.16 14.7zM269.05 125.16l-5.95-17.85h-35.84l-6.09 17.85h-20.55l36.7-100.86h15.44l36.83 100.86zm-23.52-71.11l-12.75 36.69h25.08zM240.13 165.61v-12.17h-9.85v12.17h-5.68v-29.09h5.68v11.89h9.85v-11.89h5.68v29.09zM258.15 149v16.63h-5.32V149h-2.2v-4h2.2v-2.66a6.27 6.27 0 011.6-4.29 5.84 5.84 0 014.62-1.8h3v4.5H260q-1.83 0-1.83 1.92V145h3.92v4zM283.48 165.61L276 152.37l-3.76 4.5v8.74h-5.68v-29.09h5.68v12.67l10.26-12.67h6.9l-9.64 11.56 10.34 17.53z"/></g></g></svg><svg viewBox="0 0 290.1 165.61" id="logo_asta-hfk-bremen_schwarz" xmlns="http://www.w3.org/2000/svg"><g data-name="Ebene 2"><g data-name="Ebene 1"><path d="M68.42 125.16l-5.94-17.85H26.63l-6.09 17.85H0L36.69 24.3h15.44L89 125.16zM44.91 54.05L32.16 90.74h25.08zM137.34 100.08q-12.6 4.2-28.09-1.24a63.72 63.72 0 01-18.58-9.75 42 42 0 01-11.77-15l16.26-7.8a26.3 26.3 0 007.93 9.71 44.52 44.52 0 0012.24 6.4q16.85 5.91 21-5.85c1.15-3.29 1.21-6.15.16-8.57s-3.57-4.68-7.54-6.78l-5.06-2.68-5.87-3q-11.55-6-15.67-14.36-4.42-9.21-.25-21.11 4.56-13 16.3-17.78t27 .55a55.24 55.24 0 0116.46 8.71 38.71 38.71 0 0110.39 13.18l-15.85 7.5a21.86 21.86 0 00-7.06-8.34 42.68 42.68 0 00-10.16-5.07q-7.08-2.49-12.09-.41a11.74 11.74 0 00-6.83 7.28 10 10 0 00.57 7.78q1.88 4 7.35 6.86l5.46 2.82 5.2 2.73a51.21 51.21 0 019.82 6.45 24.33 24.33 0 015.78 7.29q4.91 9.52.26 22.76-4.77 13.5-17.36 17.72zM177.27 121.83q-9.9-3.48-13-11.16a21.79 21.79 0 01-.22-15.84l12.11-34.49-7.35-2.58 4.65-13.24 7.35 2.59 8-22.81h19.52l-10.11 28.91 12.29 4.32-4.64 13.23-12.3-4.32-11.74 33.42q-2.21 6.28 3.81 8.39l6.28 2.21-5.16 14.7zM269.05 125.16l-5.95-17.85h-35.84l-6.09 17.85h-20.55l36.7-100.86h15.44l36.83 100.86zm-23.52-71.11l-12.75 36.69h25.08zM240.13 165.61v-12.17h-9.85v12.17h-5.68v-29.09h5.68v11.89h9.85v-11.89h5.68v29.09zM258.15 149v16.63h-5.32V149h-2.2v-4h2.2v-2.66a6.27 6.27 0 011.6-4.29 5.84 5.84 0 014.62-1.8h3v4.5H260q-1.83 0-1.83 1.92V145h3.92v4zM283.48 165.61L276 152.37l-3.76 4.5v8.74h-5.68v-29.09h5.68v12.67l10.26-12.67h6.9l-9.64 11.56 10.34 17.53z"/></g></g></svg><svg viewBox="0 0 290.1 165.61" id="logo_asta-hfk-bremen_tuerkis" xmlns="http://www.w3.org/2000/svg"><defs><style>.aycls-1{fill:#64f5dc}</style></defs><g id="ayEbene_2" data-name="Ebene 2"><g id="ayEbene_1-2" data-name="Ebene 1"><path class="aycls-1" d="M68.42 125.16l-5.94-17.85H26.63l-6.09 17.85H0L36.69 24.3h15.44L89 125.16zM44.91 54.05L32.16 90.74h25.08zM137.34 100.08q-12.6 4.2-28.09-1.24a63.72 63.72 0 01-18.58-9.75 42 42 0 01-11.77-15l16.26-7.8a26.3 26.3 0 007.93 9.71 44.52 44.52 0 0012.24 6.4q16.85 5.91 21-5.85c1.15-3.29 1.21-6.15.16-8.57s-3.57-4.68-7.54-6.78l-5.06-2.68-5.87-3q-11.55-6-15.67-14.36-4.42-9.21-.25-21.11 4.56-13 16.3-17.78t27 .55a55.24 55.24 0 0116.46 8.71 38.71 38.71 0 0110.39 13.18l-15.85 7.5a21.86 21.86 0 00-7.06-8.34 42.68 42.68 0 00-10.16-5.07q-7.08-2.49-12.09-.41a11.74 11.74 0 00-6.83 7.28 10 10 0 00.57 7.78q1.88 4 7.35 6.86l5.46 2.82 5.2 2.73a51.21 51.21 0 019.82 6.45 24.33 24.33 0 015.78 7.29q4.91 9.52.26 22.76-4.77 13.5-17.36 17.72zM177.27 121.83q-9.9-3.48-13-11.16a21.79 21.79 0 01-.22-15.84l12.11-34.49-7.35-2.58 4.65-13.24 7.35 2.59 8-22.81h19.52l-10.11 28.91 12.29 4.32-4.64 13.23-12.3-4.32-11.74 33.42q-2.21 6.28 3.81 8.39l6.28 2.21-5.16 14.7zM269.05 125.16l-5.95-17.85h-35.84l-6.09 17.85h-20.55l36.7-100.86h15.44l36.83 100.86zm-23.52-71.11l-12.75 36.69h25.08zM240.13 165.61v-12.17h-9.85v12.17h-5.68v-29.09h5.68v11.89h9.85v-11.89h5.68v29.09zM258.15 149v16.63h-5.31V149h-2.21v-4h2.21v-2.66a6.26 6.26 0 011.59-4.29 5.84 5.84 0 014.62-1.8h3v4.5H260c-1.23 0-1.84.64-1.84 1.92V145h3.92v4zM283.48 165.61L276 152.37l-3.76 4.5v8.74h-5.68v-29.09h5.68v12.67l10.26-12.67h6.9l-9.64 11.56 10.34 17.53z"/></g></g></svg><svg viewBox="0 0 290.1 165.61" id="logo_asta-hfk-bremen_weiss" xmlns="http://www.w3.org/2000/svg"><defs><style>.azcls-1{fill:#fff}</style></defs><g id="azEbene_2" data-name="Ebene 2"><g id="azEbene_1-2" data-name="Ebene 1"><path class="azcls-1" d="M68.42 125.16l-5.94-17.85H26.63l-6.09 17.85H0L36.69 24.3h15.44L89 125.16zM44.91 54.05L32.16 90.74h25.08zM137.34 100.08q-12.6 4.2-28.09-1.24a63.72 63.72 0 01-18.58-9.75 42 42 0 01-11.77-15l16.26-7.8a26.3 26.3 0 007.93 9.71 44.52 44.52 0 0012.24 6.4q16.85 5.91 21-5.85c1.15-3.29 1.21-6.15.16-8.57s-3.57-4.68-7.54-6.78l-5.06-2.68-5.87-3q-11.55-6-15.67-14.36-4.42-9.21-.25-21.11 4.56-13 16.3-17.78t27 .55a55.24 55.24 0 0116.46 8.71 38.71 38.71 0 0110.39 13.18l-15.85 7.5a21.86 21.86 0 00-7.06-8.34 42.68 42.68 0 00-10.16-5.07q-7.08-2.49-12.09-.41a11.74 11.74 0 00-6.83 7.28 10 10 0 00.57 7.78q1.88 4 7.35 6.86l5.46 2.82 5.2 2.73a51.21 51.21 0 019.82 6.45 24.33 24.33 0 015.78 7.29q4.91 9.52.26 22.76-4.77 13.5-17.36 17.72zM177.27 121.83q-9.9-3.48-13-11.16a21.79 21.79 0 01-.22-15.84l12.11-34.49-7.35-2.58 4.65-13.24 7.35 2.59 8-22.81h19.52l-10.11 28.91 12.29 4.32-4.64 13.23-12.3-4.32-11.74 33.42q-2.21 6.28 3.81 8.39l6.28 2.21-5.16 14.7zM269.05 125.16l-5.95-17.85h-35.84l-6.09 17.85h-20.55l36.7-100.86h15.44l36.83 100.86zm-23.52-71.11l-12.75 36.69h25.08zM240.13 165.61v-12.17h-9.85v12.17h-5.68v-29.09h5.68v11.89h9.85v-11.89h5.68v29.09zM258.15 149v16.63h-5.31V149h-2.21v-4h2.21v-2.66a6.26 6.26 0 011.59-4.29 5.84 5.84 0 014.62-1.8h3v4.5H260c-1.23 0-1.84.64-1.84 1.92V145h3.92v4zM283.48 165.61L276 152.37l-3.76 4.5v8.74h-5.68v-29.09h5.68v12.67l10.26-12.67h6.9l-9.64 11.56 10.34 17.53z"/></g></g></svg><svg viewBox="0 0 38.56 56.75" id="m_arrow_elevator" xmlns="http://www.w3.org/2000/svg"><defs><style>.bacls-1{fill:none;stroke:#5a00be;stroke-width:2px}</style></defs><g id="baEbene_2" data-name="Ebene 2"><g id="baEbene_1-2" data-name="Ebene 1"><g id="baGruppe_34" data-name="Gruppe 34"><path id="baPfad_79" data-name="Pfad 79" class="bacls-1" d="M37.74 28.68L19.28 1.77.82 28.68"/><path id="baPfad_80" data-name="Pfad 80" class="bacls-1" d="M19.26 56.75V3.18"/></g></g></g></svg><svg viewBox="0 0 26.43 45.77" id="m_arrow_elevator_burger" xmlns="http://www.w3.org/2000/svg"><defs><style>.bbcls-1{fill:none;stroke:#5a00be;stroke-width:3px}</style></defs><g id="bbEbene_2" data-name="Ebene 2"><g id="bbEbene_1-2" data-name="Ebene 1"><g id="bbGruppe_128" data-name="Gruppe 128"><path id="bbPfad_79" data-name="Pfad 79" class="bbcls-1" d="M25.19 20.12l-12-17.47-12 17.47"/><path id="bbPfad_80" data-name="Pfad 80" class="bbcls-1" d="M13.2 45.77V3.57"/></g></g></g></svg><svg viewBox="0 0 26.43 45.77" id="m_arrow_elevator_burger-red" xmlns="http://www.w3.org/2000/svg"><defs><style>.bccls-1{fill:none;stroke:#d50e31;stroke-width:3px}</style></defs><g id="bcEbene_2" data-name="Ebene 2"><g id="bcEbene_1-2" data-name="Ebene 1"><g id="bcGruppe_128" data-name="Gruppe 128"><path id="bcPfad_79" data-name="Pfad 79" class="bccls-1" d="M25.19 20.12l-12-17.47-12 17.47"/><path id="bcPfad_80" data-name="Pfad 80" class="bccls-1" d="M13.2 45.77V3.57"/></g></g></g></svg><svg viewBox="0 0 38.56 56.75" id="m_arrow_elevator_red" xmlns="http://www.w3.org/2000/svg"><defs><style>.bdcls-1{fill:none;stroke:#d50e31;stroke-width:2px}</style></defs><g id="bdEbene_2" data-name="Ebene 2"><g id="bdEbene_1-2" data-name="Ebene 1"><g id="bdGruppe_34" data-name="Gruppe 34"><path id="bdPfad_79" data-name="Pfad 79" class="bdcls-1" d="M37.74 28.68L19.28 1.77.82 28.68"/><path id="bdPfad_80" data-name="Pfad 80" class="bdcls-1" d="M19.26 56.75V3.18"/></g></g></g></svg><svg viewBox="0 0 16.2 10.1" id="m_arrow_nav" xmlns="http://www.w3.org/2000/svg"><defs><style>.becls-1{fill:none;stroke:#5a00be;stroke-width:2px}</style></defs><g id="beEbene_2" data-name="Ebene 2"><g id="beEbene_1-2" data-name="Ebene 1"><path id="bePfad_193" data-name="Pfad 193" class="becls-1" d="M.73.68l7.37 8 7.37-8"/></g></g></svg><svg viewBox="0 0 16.2 10.1" id="m_arrow_nav-red" xmlns="http://www.w3.org/2000/svg"><defs><style>.bfcls-1{fill:none;stroke:#d50e31;stroke-width:2px}</style></defs><g id="bfEbene_2" data-name="Ebene 2"><g id="bfEbene_1-2" data-name="Ebene 1"><path id="bfPfad_193" data-name="Pfad 193" class="bfcls-1" d="M.73.68l7.37 8 7.37-8"/></g></g></svg><svg version="1.1" id="m_link_download" x="0" y="0" viewBox="0 0 28.1 20.5" xml:space="preserve" xmlns="http://www.w3.org/2000/svg"><style>.bgst0{fill:none;stroke:#5a00be;stroke-width:2}</style><g id="bgEbene_2_9_"><g id="bgEbene_1-2_9_"><g id="bgGruppe_113_5_"><path id="bgPfad_79_5_" class="bgst0" d="M8.5 7.2l5.5 8.1 5.5-8.1"/><path id="bgPfad_80_5_" class="bgst0" d="M14.1.3v14.5"/></g><path class="bgst0" d="M6.9 19.3h14.3"/></g></g></svg><svg version="1.1" id="m_link_download-red" x="0" y="0" viewBox="0 0 28.1 20.5" xml:space="preserve" xmlns="http://www.w3.org/2000/svg"><style>.bhst0{fill:none;stroke:#d50e31;stroke-width:2}</style><g id="bhEbene_2_1_"><g id="bhEbene_1-2_1_"><g id="bhGruppe_113_1_"><path id="bhPfad_79_1_" class="bhst0" d="M8.5 7.2l5.5 8.1 5.5-8.1"/><path id="bhPfad_80_1_" class="bhst0" d="M14.1.3v14.5"/></g><path class="bhst0" d="M6.9 19.3h14.3"/></g></g></svg><svg version="1.1" id="m_link_drive" x="0" y="0" viewBox="0 0 28.1 20.5" xml:space="preserve" xmlns="http://www.w3.org/2000/svg"><style>.bist0{fill:none;stroke:#5a00be;stroke-width:2}</style><g id="biEbene_2_8_"><g id="biEbene_1-2_8_"><g id="biGruppe_165_1_"><path id="biRechteck_130_1_" class="bist0" d="M7.9 9.8h12.2v9.6H7.9z"/><path id="biPfad_176_1_" class="bist0" d="M18.4 5.7c0-2.4-1.9-4.3-4.3-4.3S9.7 3.3 9.7 5.7V10"/></g></g></g></svg><svg version="1.1" id="m_link_drive-red" x="0" y="0" viewBox="0 0 28.1 20.5" xml:space="preserve" xmlns="http://www.w3.org/2000/svg"><style>.bjst0{fill:none;stroke:#d50e31;stroke-width:2}</style><g id="bjEbene_2_2_"><g id="bjEbene_1-2_2_"><g id="bjGruppe_165"><path id="bjRechteck_130" class="bjst0" d="M7.9 9.8h12.2v9.6H7.9z"/><path id="bjPfad_176" class="bjst0" d="M18.4 5.7c0-2.4-1.9-4.3-4.3-4.3S9.7 3.3 9.7 5.7V10"/></g></g></g></svg><svg version="1.1" id="m_link_external" x="0" y="0" viewBox="0 0 28.1 20.5" xml:space="preserve" xmlns="http://www.w3.org/2000/svg"><style>.bkst0{fill:none;stroke:#5a00be;stroke-width:2}</style><g id="bkEbene_2_3_"><g id="bkEbene_1-2_3_"><g id="bkGruppe_113_2_"><path id="bkPfad_79_2_" class="bkst0" d="M21.4 9.9l1.5-8.3-8.3 1.5"/><path id="bkPfad_80_2_" class="bkst0" d="M11.7 12.8l11-11"/></g><path id="bkPfad_178_1_" class="bkst0" d="M18.9 12.4v6.8H5.2V5.6H12"/></g></g></svg><svg version="1.1" id="m_link_external-red" x="0" y="0" viewBox="0 0 28.1 20.5" xml:space="preserve" xmlns="http://www.w3.org/2000/svg"><style>.blst0{fill:none;stroke:#d50e31;stroke-width:2}</style><g id="blEbene_2_4_"><g id="blEbene_1-2_4_"><g id="blGruppe_113_3_"><path id="blPfad_79_3_" class="blst0" d="M21.4 9.9l1.5-8.3-8.3 1.5"/><path id="blPfad_80_3_" class="blst0" d="M11.7 12.8l11-11"/></g><path id="blPfad_178" class="blst0" d="M18.9 12.4v6.8H5.2V5.6H12"/></g></g></svg><svg version="1.1" id="m_link_internal" x="0" y="0" viewBox="0 0 28.1 20.5" xml:space="preserve" xmlns="http://www.w3.org/2000/svg"><style>.bmst0{fill:none;stroke:#5a00be;stroke-width:2}</style><g id="bmEbene_2"><g id="bmEbene_1-2"><g id="bmGruppe_113_8_"><path id="bmPfad_79_8_" class="bmst0" d="M9.9 15.2l7.9-5.7-7.9-5.7"/><path id="bmPfad_80_8_" class="bmst0" d="M0 9.5h17.4"/></g></g></g></svg><svg version="1.1" id="m_link_internal-red" x="0" y="0" viewBox="0 0 28.1 20.5" xml:space="preserve" xmlns="http://www.w3.org/2000/svg"><style>.bnst0{fill:none;stroke:#d50e31;stroke-width:2}</style><g id="bnEbene_2_5_"><g id="bnEbene_1-2_5_"><g id="bnGruppe_113_4_"><path id="bnPfad_79_4_" class="bnst0" d="M9.9 15.2l7.9-5.7-7.9-5.7"/><path id="bnPfad_80_4_" class="bnst0" d="M0 9.5h17.4"/></g></g></g></svg><svg version="1.1" id="m_link_mail" x="0" y="0" viewBox="0 0 28.1 20.5" xml:space="preserve" xmlns="http://www.w3.org/2000/svg"><style>.bost0{fill:none;stroke:#5a00be;stroke-width:2}</style><g id="boEbene_2_6_"><g id="boEbene_1-2_6_"><path class="bost0" d="M1 3.6h17.9v11.6H1z"/><path class="bost0" d="M18.9 3.6l-9 7.2L1 3.6"/></g></g></svg><svg version="1.1" id="m_link_mail-red" x="0" y="0" viewBox="0 0 28.1 20.5" xml:space="preserve" xmlns="http://www.w3.org/2000/svg"><style>.bpst0{fill:none;stroke:#d50e31;stroke-width:2}</style><g id="bpEbene_2_11_"><g id="bpEbene_1-2_11_"><path class="bpst0" d="M1 3.6h17.9v11.6H1z"/><path class="bpst0" d="M18.9 3.6l-9 7.2L1 3.6"/></g></g></svg><svg version="1.1" id="m_link_portal" x="0" y="0" viewBox="0 0 28.1 20.5" xml:space="preserve" xmlns="http://www.w3.org/2000/svg"><style>.bqst0{fill:none;stroke:#5a00be;stroke-width:2}</style><g id="bqEbene_2_10_"><g id="bqEbene_1-2_10_"><path class="bqst0" d="M4.5 14.6v4.2h14.2V1.2H4.5v3.4"/><g id="bqGruppe_113_6_"><path id="bqPfad_79_6_" class="bqst0" d="M7.5 14l6-4.1-6-4.1"/><path id="bqPfad_80_6_" class="bqst0" d="M0 9.9h13.1"/></g></g></g></svg><svg version="1.1" id="m_link_portal-red" x="0" y="0" viewBox="0 0 28.1 20.5" xml:space="preserve" xmlns="http://www.w3.org/2000/svg"><style>.brst0{fill:none;stroke:#d50e31;stroke-width:2}</style><g id="brEbene_2_7_"><g id="brEbene_1-2_7_"><path class="brst0" d="M4.5 14.6v4.2h14.2V1.2H4.5v3.4"/><g id="brGruppe_113_7_"><path id="brPfad_79_7_" class="brst0" d="M7.5 14l6-4.1-6-4.1"/><path id="brPfad_80_7_" class="brst0" d="M0 9.9h13.1"/></g></g></g></svg><svg viewBox="0 0 23.29 23.29" id="m_search" xmlns="http://www.w3.org/2000/svg"><defs><style>.bscls-1{fill:none;stroke:#5a00be;stroke-width:2px}</style></defs><g id="bsEbene_2" data-name="Ebene 2"><g id="bsEbene_1-2" data-name="Ebene 1"><g id="bsGruppe_198" data-name="Gruppe 198"><path id="bsPfad_190" data-name="Pfad 190" class="bscls-1" d="M19.14 10.07A9.07 9.07 0 1110.07 1a9 9 0 019.07 9z"/><path id="bsLinie_3" data-name="Linie 3" class="bscls-1" d="M16.47 16.47l6.11 6.11"/></g></g></g></svg><svg version="1.1" id="m_swoosh_1" x="0" y="0" viewBox="0 0 267.4 220.7" xml:space="preserve" xmlns="http://www.w3.org/2000/svg"><style>.btst0{fill:none;stroke:#5a00be;stroke-width:2;stroke-linecap:square}</style><g id="btEbene_2"><g id="btEbene_1-2"><path id="btPfad_38" class="btst0" d="M248.9 2.8s-5.4 78.5-93.1 99.5C50.9 127.4 10.9 75.4 10.9 75.4"/></g></g></svg><svg version="1.1" id="m_swoosh_2" x="0" y="0" viewBox="0 0 267.4 220.7" xml:space="preserve" xmlns="http://www.w3.org/2000/svg"><style>.bust0{fill:none;stroke:#5a00be;stroke-width:2;stroke-linecap:square}</style><g id="buEbene_2_2_"><g id="buEbene_1-2_2_"><path id="buPfad_38-2" class="bust0" d="M248.7 1.4s8.2 141-95.4 171.3S4 117.3 4 117.3"/></g></g></svg><svg version="1.1" id="m_swoosh_3" x="0" y="0" viewBox="0 0 267.4 220.7" xml:space="preserve" xmlns="http://www.w3.org/2000/svg"><style>.bvst0{fill:none;stroke:#5a00be;stroke-width:2;stroke-linecap:square}</style><g id="bvEbene_2_1_"><g id="bvEbene_1-2_1_"><path id="bvPfad_38_1_" class="bvst0" d="M248.4 1.4s53 179.7-50.7 210S37.4 136 37.4 136"/></g></g></svg></svg>