<svg xmlns="http://www.w3.org/2000/svg" viewBox="0 0 290.34 174.03"><defs><style>.cls-1,.cls-2{fill:#d50e31;}.cls-2{font-size:40.86px;font-family:HfKDIN-Bold, HfK DIN-Regular;font-weight:700;}</style></defs><g id="Ebene_2" data-name="Ebene 2"><g id="Ebene_1-2" data-name="Ebene 1"><path class="cls-1" d="M68.42,125.16l-5.94-17.85H26.63l-6.09,17.85H0L36.69,24.3H52.13L89,125.16ZM44.91,54.05,32.16,90.74H57.24Z"/><path class="cls-1" d="M137.34,100.08q-12.6,4.2-28.09-1.24a63.72,63.72,0,0,1-18.58-9.75,42,42,0,0,1-11.77-15l16.26-7.8A26.3,26.3,0,0,0,103.09,76a44.52,44.52,0,0,0,12.24,6.4q16.85,5.91,21-5.85c1.15-3.29,1.21-6.15.16-8.57s-3.57-4.68-7.54-6.78l-5.06-2.68-5.87-3q-11.55-6-15.67-14.36-4.42-9.21-.25-21.11,4.56-13,16.3-17.78t27,.55a55.24,55.24,0,0,1,16.46,8.71,38.71,38.71,0,0,1,10.39,13.18l-15.85,7.5a21.86,21.86,0,0,0-7.06-8.34,42.68,42.68,0,0,0-10.16-5.07q-7.08-2.49-12.09-.41a11.74,11.74,0,0,0-6.83,7.28,10,10,0,0,0,.57,7.78q1.88,4,7.35,6.86l5.46,2.82,5.2,2.73a51.21,51.21,0,0,1,9.82,6.45,24.33,24.33,0,0,1,5.78,7.29q4.91,9.52.26,22.76Q149.93,95.86,137.34,100.08Z"/><path class="cls-1" d="M177.27,121.83q-9.9-3.48-13-11.16a21.79,21.79,0,0,1-.22-15.84l12.11-34.49-7.35-2.58,4.65-13.24,7.35,2.59,8-22.81h19.52L198.22,53.21l12.29,4.32-4.64,13.23-12.3-4.32L181.83,99.86q-2.21,6.28,3.81,8.39l6.28,2.21-5.16,14.7Z"/><path class="cls-1" d="M269.05,125.16l-5.95-17.85H227.26l-6.09,17.85H200.62L237.32,24.3h15.44l36.83,100.86ZM245.53,54.05,232.78,90.74h25.08Z"/><text class="cls-2" transform="translate(221.21 165.61)">HfK</text></g></g></svg>